<svg width="24" height="24" viewBox="0 0 24 24" fill="none" xmlns="http://www.w3.org/2000/svg">
<g clip-path="url(#clip0_4314_19075)">
<mask id="mask0_4314_19075" style="mask-type:luminance" maskUnits="userSpaceOnUse" x="0" y="0" width="24" height="24">
<path d="M0 0H24V24H0V0Z" fill="white"/>
</mask>
<g mask="url(#mask0_4314_19075)">
<path d="M24 0H0V24H24V0Z" fill="url(#paint0_linear_4314_19075)"/>
<path d="M15.88 14.8601L19.674 12.6951C19.773 12.6393 19.8553 12.5583 19.9126 12.4602C19.9699 12.3622 20.0001 12.2506 20 12.1371V7.80705C19.9997 7.69382 19.9694 7.5827 19.9121 7.48502C19.8549 7.38734 19.7727 7.30661 19.674 7.25105L15.88 5.08605C15.7809 5.02997 15.6689 5.00049 15.555 5.00049C15.4411 5.00049 15.3292 5.02997 15.23 5.08605L11.432 7.25005C11.3334 7.30582 11.2513 7.38677 11.1942 7.48463C11.1371 7.58249 11.107 7.69375 11.107 7.80705V15.5441L8.44502 17.0611L5.78402 15.5441V12.5081L8.44502 10.9911L10.2 11.9921V9.95805L8.77002 9.14205C8.67089 9.08597 8.55892 9.05649 8.44502 9.05649C8.33112 9.05649 8.21916 9.08597 8.12002 9.14205L4.32402 11.3071C4.2254 11.3628 4.14334 11.4438 4.08624 11.5416C4.02914 11.6395 3.99904 11.7508 3.99902 11.8641V16.1941C3.99902 16.4231 4.12302 16.6361 4.32402 16.7511L8.12002 18.9161C8.32002 19.0301 8.57002 19.0301 8.77002 18.9161L12.566 16.7511C12.6646 16.6953 12.7467 16.6143 12.8038 16.5165C12.8609 16.4186 12.891 16.3074 12.891 16.1941V8.45505L12.939 8.42905L15.552 6.93905L18.213 8.45505V11.4911L15.552 13.0081L13.799 12.0091V14.0461L15.226 14.8601C15.3253 14.9163 15.4374 14.9459 15.5515 14.9459C15.6656 14.9459 15.7778 14.9163 15.877 14.8601H15.88Z" fill="white"/>
</g>
</g>
<defs>
<linearGradient id="paint0_linear_4314_19075" x1="3.948" y1="16.617" x2="19.217" y2="7.645" gradientUnits="userSpaceOnUse">
<stop stop-color="#A726C1"/>
<stop offset="0.88" stop-color="#803BDF"/>
<stop offset="1" stop-color="#7B3FE4"/>
</linearGradient>
<clipPath id="clip0_4314_19075">
<rect width="24" height="24" rx="12" fill="white"/>
</clipPath>
</defs>
</svg>
