<svg width="24" height="24" viewBox="0 0 24 24" fill="none" xmlns="http://www.w3.org/2000/svg">
<g clip-path="url(#clip0_4314_18882)">
<mask id="mask0_4314_18882" style="mask-type:luminance" maskUnits="userSpaceOnUse" x="0" y="0" width="24" height="24">
<path d="M0 0H24V24H0V0Z" fill="white"/>
</mask>
<g mask="url(#mask0_4314_18882)">
<path d="M24 0H0V24H24V0Z" fill="url(#paint0_linear_4314_18882)"/>
<path d="M17.7 8.35805C17.6003 8.44965 17.4704 8.50128 17.335 8.50305H4.51502C4.06002 8.50305 3.83102 7.98305 4.14502 7.67805L6.25102 5.64805C6.34915 5.55402 6.47913 5.50046 6.61502 5.49805H19.485C19.945 5.49805 20.17 6.02205 19.85 6.32805L17.7 8.35805ZM17.7 18.363C17.6 18.453 17.47 18.503 17.335 18.503H4.51502C4.06002 18.503 3.83102 17.987 4.14502 17.683L6.25102 15.647C6.34938 15.554 6.47962 15.5021 6.61502 15.502H19.485C19.945 15.502 20.17 16.022 19.85 16.327L17.7 18.363ZM17.7 10.643C17.5996 10.5533 17.4697 10.5034 17.335 10.503H4.51502C4.06002 10.503 3.83102 11.018 4.14502 11.323L6.25102 13.358C6.35102 13.449 6.48102 13.501 6.61502 13.502H19.485C19.945 13.502 20.17 12.982 19.85 12.678L17.7 10.643Z" fill="white"/>
</g>
</g>
<defs>
<linearGradient id="paint0_linear_4314_18882" x1="4.001" y1="50.258" x2="20.408" y2="50.108" gradientUnits="userSpaceOnUse">
<stop stop-color="#599DB0"/>
<stop offset="1" stop-color="#47F8C3"/>
</linearGradient>
<clipPath id="clip0_4314_18882">
<rect width="24" height="24" rx="12" fill="white"/>
</clipPath>
</defs>
</svg>
