<svg width="24" height="24" viewBox="0 0 24 24" fill="none" xmlns="http://www.w3.org/2000/svg">
<g clip-path="url(#clip0_4314_19769)">
<mask id="mask0_4314_19769" style="mask-type:luminance" maskUnits="userSpaceOnUse" x="0" y="0" width="24" height="24">
<path d="M0 0H24V24H0V0Z" fill="white"/>
</mask>
<g mask="url(#mask0_4314_19769)">
<path d="M24 0H0V24H24V0Z" fill="#0E5BFF"/>
<path d="M4 12C4 9.87827 4.84285 7.84344 6.34315 6.34315C7.84344 4.84285 9.87827 4 12 4C14.1217 4 16.1566 4.84285 17.6569 6.34315C19.1571 7.84344 20 9.87827 20 12C20 14.1217 19.1571 16.1566 17.6569 17.6569C16.1566 19.1571 14.1217 20 12 20C9.87827 20 7.84344 19.1571 6.34315 17.6569C4.84285 16.1566 4 14.1217 4 12Z" fill="white"/>
<path fill-rule="evenodd" clip-rule="evenodd" d="M12 17.667C12.7442 17.667 13.4811 17.5204 14.1687 17.2356C14.8562 16.9508 15.481 16.5334 16.0072 16.0072C16.5334 15.481 16.9508 14.8562 17.2356 14.1687C17.5204 13.4811 17.667 12.7442 17.667 12C17.667 11.2558 17.5204 10.5189 17.2356 9.83134C16.9508 9.14379 16.5334 8.51906 16.0072 7.99283C15.481 7.4666 14.8562 7.04918 14.1687 6.76438C13.4811 6.47959 12.7442 6.33301 12 6.33301C10.497 6.33301 9.0556 6.93006 7.99283 7.99283C6.93006 9.0556 6.33301 10.497 6.33301 12C6.33301 13.503 6.93006 14.9444 7.99283 16.0072C9.0556 17.07 10.497 17.667 12 17.667ZM11.333 10.333C11.0678 10.333 10.8134 10.4384 10.6259 10.6259C10.4384 10.8134 10.333 11.0678 10.333 11.333V12.667C10.333 12.9322 10.4384 13.1866 10.6259 13.3741C10.8134 13.5617 11.0678 13.667 11.333 13.667H12.667C12.9322 13.667 13.1866 13.5617 13.3741 13.3741C13.5617 13.1866 13.667 12.9322 13.667 12.667V11.333C13.667 11.0678 13.5617 10.8134 13.3741 10.6259C13.1866 10.4384 12.9322 10.333 12.667 10.333H11.333Z" fill="#0E5BFF"/>
</g>
</g>
<defs>
<clipPath id="clip0_4314_19769">
<rect width="24" height="24" rx="12" fill="white"/>
</clipPath>
</defs>
</svg>
