<svg width="24" height="24" viewBox="0 0 24 24" fill="none" xmlns="http://www.w3.org/2000/svg">
<g clip-path="url(#clip0_4314_19731)">
<mask id="mask0_4314_19731" style="mask-type:luminance" maskUnits="userSpaceOnUse" x="0" y="0" width="24" height="24">
<path d="M0 0H24V24H0V0Z" fill="white"/>
</mask>
<g mask="url(#mask0_4314_19731)">
<path d="M24 0H0V24H24V0Z" fill="white"/>
<path d="M18.78 11.99L19.5 11.164L19.187 10.939L19.687 10.491L19.302 10.205L19.802 9.83805L19.479 9.59305L20 7.10505L19.208 4.80005M19.208 4.80005L14.12 6.64605H9.88L4.792 4.80005L4 7.10505L4.532 9.59305L4.198 9.83805L4.708 10.205L4.323 10.491L4.823 10.939L4.511 11.164L5.23 11.99L4.136 15.294L5.146 18.67L8.701 17.711L9.389 18.261L10.796 19.2H13.204L14.611 18.262L15.299 17.712L18.864 18.67L19.885 15.294L18.78 11.99" fill="#F5841F"/>
<path d="M19.2077 4.80005L12.9637 9.29705L14.1207 6.64605L19.2077 4.80005ZM4.79174 4.80005L10.9837 9.33805L9.87874 6.64605L4.79174 4.80005ZM16.9667 15.233L15.2987 17.7L18.8637 18.658L19.8847 15.283L16.9667 15.233ZM4.13574 15.284L5.14574 18.659L8.70074 17.701L7.04374 15.233L4.13574 15.284Z" fill="#E27625"/>
<path d="M8.51246 11.0519L7.52246 12.5099L11.0455 12.6629L10.9315 8.97093L8.51246 11.0519ZM15.4965 11.0519L13.0365 8.92993L12.9635 12.6629L16.4865 12.5099L15.4965 11.0519ZM8.69946 17.6999L10.8375 16.7009L8.99246 15.3149L8.69946 17.6999ZM13.1725 16.7009L15.2985 17.7009L15.0065 15.3149L13.1725 16.7009Z" fill="#E27625"/>
<path d="M15.2992 17.6999L13.1732 16.7009L13.3502 18.0479L13.3292 18.6179L15.2992 17.6999ZM8.7002 17.6999L10.6812 18.6189L10.6712 18.0479L10.8382 16.7009L8.7002 17.6999Z" fill="#D7C1B3"/>
<path d="M10.7132 14.4167L8.95117 13.9167L10.2022 13.3567L10.7132 14.4167ZM13.2872 14.4167L13.8092 13.3567L15.0592 13.9167L13.2872 14.4167Z" fill="#2F343B"/>
<path d="M8.70095 17.7L9.01395 15.233L7.04395 15.283L8.70095 17.7ZM14.9969 15.233L15.2989 17.701L16.9669 15.284L14.9969 15.233ZM16.4869 12.51L12.9639 12.663L13.2869 14.417L13.8079 13.357L15.0589 13.917L16.4869 12.51ZM8.95095 13.917L10.2009 13.357L10.7129 14.417L11.0459 12.663L7.52294 12.51L8.95095 13.917Z" fill="#CC6228"/>
<path d="M7.52246 12.51L8.99246 15.315L8.95046 13.917L7.52246 12.51ZM15.0595 13.917L15.0065 15.315L16.4865 12.51L15.0595 13.917ZM11.0455 12.663L10.7125 14.417L11.1295 16.497L11.2225 13.764L11.0455 12.663ZM12.9635 12.663L12.7865 13.753L12.8695 16.497L13.2865 14.417L12.9635 12.663Z" fill="#E27625"/>
<path d="M13.2872 14.417L12.8702 16.497L13.1732 16.701L15.0072 15.314L15.0592 13.917L13.2872 14.417ZM8.95117 13.917L8.99317 15.314L10.8382 16.701L11.1302 16.497L10.7132 14.417L8.95117 13.917Z" fill="#F5841F"/>
<path d="M13.3292 18.6189L13.3492 18.0469L13.1832 17.9149H10.8172L10.6712 18.0479L10.6812 18.6179L8.70117 17.7009L9.38917 18.2509L10.7962 19.1999H13.2042L14.6112 18.2519L15.2992 17.7009L13.3292 18.6189Z" fill="#C0AD9E"/>
<path d="M13.1729 16.7011L12.8699 16.4971H11.1299L10.8379 16.7011L10.6709 18.0471L10.8169 17.9151H13.1829L13.3499 18.0481L13.1729 16.7011Z" fill="#2F343B"/>
<path d="M19.479 9.59305L20 7.10505L19.208 4.80005L13.173 9.14505L15.497 11.052L18.781 11.99L19.5 11.164L19.187 10.939L19.687 10.501L19.302 10.205L19.802 9.83805L19.479 9.59305ZM4 7.10505L4.532 9.59305L4.198 9.83805L4.698 10.215L4.313 10.501L4.813 10.939L4.5 11.164L5.23 11.99L8.513 11.052L10.838 9.14505L4.792 4.80005L4 7.10505Z" fill="#763E1A"/>
<path d="M18.7797 11.9898L15.4967 11.0518L16.4867 12.5098L15.0067 15.3138L16.9667 15.2838H19.8847L18.7797 11.9898ZM8.51274 11.0518L5.22974 11.9898L4.13574 15.2838H7.04374L8.99274 15.3138L7.52274 12.5098L8.51274 11.0518ZM12.9637 12.6628L13.1717 9.14375L14.1217 6.64575H9.87774L10.8367 9.14375L11.0447 12.6628L11.1287 13.7638V16.4968H12.8687L12.8787 13.7638L12.9637 12.6628Z" fill="#F5841F"/>
</g>
</g>
<defs>
<clipPath id="clip0_4314_19731">
<rect width="24" height="24" rx="12" fill="white"/>
</clipPath>
</defs>
</svg>
