<svg width="24" height="24" viewBox="0 0 24 24" fill="none" xmlns="http://www.w3.org/2000/svg">
<g clip-path="url(#clip0_4314_19717)">
<mask id="mask0_4314_19717" style="mask-type:luminance" maskUnits="userSpaceOnUse" x="0" y="-1" width="24" height="25">
<path d="M24 11.9998C24 5.37234 18.6274 -0.000244141 12 -0.000244141C5.37258 -0.000244141 0 5.37234 0 11.9998C0 18.6272 5.37258 23.9998 12 23.9998C18.6274 23.9998 24 18.6272 24 11.9998Z" fill="white"/>
</mask>
<g mask="url(#mask0_4314_19717)">
<path d="M24 -0.000244141H0V23.9998H24V-0.000244141Z" fill="#AB9FF2"/>
<path fill-rule="evenodd" clip-rule="evenodd" d="M10.444 15.2962C9.50165 16.7402 7.92257 18.5675 5.82141 18.5675C4.82813 18.5675 3.87305 18.1586 3.87305 16.3824C3.87305 11.8588 10.0492 4.8562 15.7797 4.8562C19.0397 4.8562 20.3386 7.11798 20.3386 9.68646C20.3386 12.9833 18.1992 16.753 16.0726 16.753C15.3976 16.753 15.0665 16.3824 15.0665 15.7946C15.0665 15.6412 15.092 15.4751 15.143 15.2962C14.4171 16.5357 13.0163 17.6858 11.7047 17.6858C10.7496 17.6858 10.2657 17.0852 10.2657 16.2418C10.2657 15.9351 10.3294 15.6157 10.444 15.2962ZM15.3803 9.59738C15.3803 10.3458 14.9387 10.72 14.4448 10.72C13.9433 10.72 13.5092 10.3458 13.5092 9.59738C13.5092 8.84894 13.9433 8.47472 14.4448 8.47472C14.9387 8.47472 15.3803 8.84894 15.3803 9.59738ZM18.187 9.5974C18.187 10.3458 17.7454 10.7201 17.2514 10.7201C16.75 10.7201 16.3159 10.3458 16.3159 9.5974C16.3159 8.84896 16.75 8.47476 17.2514 8.47476C17.7454 8.47476 18.187 8.84896 18.187 9.5974Z" fill="#FFFDF8"/>
</g>
</g>
<defs>
<clipPath id="clip0_4314_19717">
<rect width="24" height="24" fill="white"/>
</clipPath>
</defs>
</svg>
