<svg width="24" height="24" viewBox="0 0 24 24" fill="none" xmlns="http://www.w3.org/2000/svg">
<g clip-path="url(#clip0_4314_19756)">
<mask id="mask0_4314_19756" style="mask-type:luminance" maskUnits="userSpaceOnUse" x="0" y="0" width="24" height="24">
<path d="M0 0H24V24H0V0Z" fill="white"/>
</mask>
<g mask="url(#mask0_4314_19756)">
<path d="M24 0H0V24H24V0Z" fill="#3B99FC"/>
<path d="M7.27635 9.07595C9.88535 6.57495 14.1163 6.57495 16.7253 9.07595L17.0383 9.37595C17.0694 9.40495 17.0941 9.44002 17.111 9.47898C17.128 9.51794 17.1367 9.55997 17.1367 9.60245C17.1367 9.64492 17.128 9.68695 17.111 9.72591C17.0941 9.76487 17.0694 9.79994 17.0383 9.82895L15.9643 10.8589C15.9327 10.8895 15.8904 10.9066 15.8463 10.9066C15.8023 10.9066 15.76 10.8895 15.7283 10.8589L15.2963 10.4449C13.4763 8.69994 10.5243 8.69994 8.70435 10.4449L8.24135 10.8889C8.20966 10.9195 8.16736 10.9366 8.12335 10.9366C8.07933 10.9366 8.03703 10.9195 8.00535 10.8889L6.93135 9.85895C6.90031 9.82994 6.87556 9.79487 6.85865 9.75591C6.84173 9.71695 6.833 9.67492 6.833 9.63244C6.833 9.58997 6.84173 9.54794 6.85865 9.50898C6.87556 9.47002 6.90031 9.43495 6.93135 9.40595L7.27635 9.07595ZM18.9463 11.2049L19.9023 12.1209C19.9334 12.1499 19.9581 12.185 19.975 12.224C19.992 12.2629 20.0007 12.305 20.0007 12.3474C20.0007 12.3899 19.992 12.4319 19.975 12.4709C19.9581 12.5099 19.9334 12.5449 19.9023 12.5739L15.5923 16.7059C15.5285 16.7664 15.4438 16.8001 15.3558 16.8001C15.2679 16.8001 15.1832 16.7664 15.1193 16.7059L12.0593 13.7739C12.0434 13.7589 12.0223 13.7505 12.0003 13.7505C11.9784 13.7505 11.9573 13.7589 11.9413 13.7739L8.88134 16.7059C8.81751 16.7661 8.73309 16.7997 8.64535 16.7997C8.55761 16.7997 8.47318 16.7661 8.40935 16.7059L4.09835 12.5739C4.06731 12.5449 4.04256 12.5099 4.02565 12.4709C4.00873 12.4319 4 12.3899 4 12.3474C4 12.305 4.00873 12.2629 4.02565 12.224C4.04256 12.185 4.06731 12.1499 4.09835 12.1209L5.05435 11.2049C5.11818 11.1448 5.20261 11.1112 5.29035 11.1112C5.37809 11.1112 5.46251 11.1448 5.52635 11.2049L8.58635 14.1379C8.6023 14.153 8.62341 14.1614 8.64535 14.1614C8.66728 14.1614 8.68839 14.153 8.70435 14.1379L11.7643 11.2049C11.8282 11.1448 11.9126 11.1112 12.0003 11.1112C12.0881 11.1112 12.1725 11.1448 12.2363 11.2049L15.2963 14.1379C15.3123 14.153 15.3334 14.1614 15.3553 14.1614C15.3773 14.1614 15.3984 14.153 15.4143 14.1379L18.4743 11.2049C18.5383 11.145 18.6227 11.1116 18.7103 11.1116C18.798 11.1116 18.8824 11.145 18.9463 11.2049Z" fill="white"/>
</g>
</g>
<defs>
<clipPath id="clip0_4314_19756">
<rect width="24" height="24" rx="12" fill="white"/>
</clipPath>
</defs>
</svg>
