<svg width="94" height="40" viewBox="0 0 94 40" fill="none" xmlns="http://www.w3.org/2000/svg">
<g clip-path="url(#clip0_5938_2859)">
<rect width="40" height="40" rx="20" fill="white"/>
<circle cx="27.7782" cy="29.9999" r="25.5556" fill="url(#paint0_radial_5938_2859)"/>
<circle cx="15.7941" cy="15.7936" r="33.5714" fill="url(#paint1_radial_5938_2859)"/>
<circle cx="27.7778" cy="9.99994" r="27.7778" fill="url(#paint2_radial_5938_2859)"/>
<circle cx="8.88878" cy="28.8888" r="24.4444" fill="url(#paint3_radial_5938_2859)"/>
<circle cx="19.9999" cy="20.0001" r="11.4286" fill="black"/>
</g>
<path d="M49.6 34V14.16H54.2L54.68 18.52H54.84C55.4267 17.1067 56.0667 16.0667 56.76 15.4C57.4533 14.7067 58.24 14.2533 59.12 14.04C60.0267 13.8 61.04 13.68 62.16 13.68V19.4H60.68C59.7733 19.4 58.96 19.5067 58.24 19.72C57.5467 19.9067 56.96 20.2267 56.48 20.68C56 21.1067 55.6267 21.68 55.36 22.4C55.12 23.12 55 23.9867 55 25V34H49.6ZM77.455 34L68.775 23.08L76.415 14.16H82.815L72.935 25.32L72.895 21.04L84.135 34H77.455ZM64.175 34V6H69.575V34H64.175ZM86.0603 34V14.16H91.4603V34H86.0603ZM88.7803 11.64C87.7936 11.64 86.9803 11.36 86.3403 10.8C85.727 10.2133 85.4203 9.48 85.4203 8.6C85.4203 7.72 85.727 6.98666 86.3403 6.4C86.9803 5.81333 87.7936 5.52 88.7803 5.52C89.767 5.52 90.567 5.81333 91.1803 6.4C91.7936 6.98666 92.1003 7.72 92.1003 8.6C92.1003 9.45333 91.7936 10.1733 91.1803 10.76C90.567 11.3467 89.767 11.64 88.7803 11.64Z" fill="#23262F"/>
<defs>
<radialGradient id="paint0_radial_5938_2859" cx="0" cy="0" r="1" gradientUnits="userSpaceOnUse" gradientTransform="translate(29.056 29.9999) rotate(56.9132) scale(42.4369)">
<stop stop-color="#AEACFF"/>
<stop offset="1" stop-color="white" stop-opacity="0"/>
</radialGradient>
<radialGradient id="paint1_radial_5938_2859" cx="0" cy="0" r="1" gradientUnits="userSpaceOnUse" gradientTransform="translate(14.4449 15.5555) rotate(-140.826) scale(38.6979)">
<stop offset="0.0392985" stop-color="#2D29D7"/>
<stop offset="1" stop-color="white" stop-opacity="0"/>
</radialGradient>
<radialGradient id="paint2_radial_5938_2859" cx="0" cy="0" r="1" gradientUnits="userSpaceOnUse" gradientTransform="translate(29.1667 9.99994) rotate(90) scale(23.6111)">
<stop stop-color="#F3BA2F"/>
<stop offset="1" stop-color="white" stop-opacity="0"/>
</radialGradient>
<radialGradient id="paint3_radial_5938_2859" cx="0" cy="0" r="1" gradientUnits="userSpaceOnUse" gradientTransform="translate(8.88878 28.8888) rotate(86.6335) scale(20.8137)">
<stop stop-color="#37F2AD"/>
<stop offset="1" stop-color="white" stop-opacity="0"/>
</radialGradient>
<clipPath id="clip0_5938_2859">
<rect width="40" height="40" rx="20" fill="white"/>
</clipPath>
</defs>
</svg>
