<svg width="138" height="20" viewBox="0 0 138 20" fill="none" xmlns="http://www.w3.org/2000/svg">
<rect width="20" height="20" rx="10" fill="#16110D"/>
<g clip-path="url(#clip0_4331_21518)">
<rect x="2.77734" y="2.77783" width="14.4444" height="14.4444" rx="7.22222" fill="white"/>
<circle cx="12.8085" cy="13.6112" r="9.22839" fill="url(#paint0_radial_4331_21518)"/>
<circle cx="8.48044" cy="8.48117" r="12.123" fill="url(#paint1_radial_4331_21518)"/>
<circle cx="12.8082" cy="6.38902" r="10.0309" fill="url(#paint2_radial_4331_21518)"/>
<circle cx="5.98732" cy="13.21" r="8.82716" fill="url(#paint3_radial_4331_21518)"/>
<circle cx="10" cy="10" r="4.12698" fill="black"/>
</g>
<path d="M29.1186 15V4.81818H32.7479C33.54 4.81818 34.1963 4.96236 34.7166 5.25071C35.237 5.53906 35.6264 5.93347 35.8849 6.43395C36.1435 6.93111 36.2727 7.49124 36.2727 8.11435C36.2727 8.74077 36.1418 9.30421 35.88 9.80469C35.6214 10.3018 35.2304 10.6963 34.7067 10.9879C34.1863 11.2763 33.5317 11.4205 32.7429 11.4205H30.2472V10.1179H32.6037C33.1042 10.1179 33.5102 10.0317 33.8217 9.85938C34.1333 9.68371 34.362 9.44508 34.5078 9.14347C34.6536 8.84186 34.7266 8.49882 34.7266 8.11435C34.7266 7.72988 34.6536 7.38849 34.5078 7.0902C34.362 6.7919 34.1316 6.55824 33.8168 6.3892C33.5052 6.22017 33.0942 6.13565 32.5838 6.13565H30.6548V15H29.1186ZM41.0753 15.1541C40.3594 15.1541 39.7346 14.9901 39.201 14.6619C38.6674 14.3338 38.2531 13.8748 37.9581 13.2848C37.6631 12.6948 37.5156 12.0054 37.5156 11.2166C37.5156 10.4245 37.6631 9.73177 37.9581 9.13849C38.2531 8.54522 38.6674 8.08452 39.201 7.75639C39.7346 7.42827 40.3594 7.2642 41.0753 7.2642C41.7912 7.2642 42.416 7.42827 42.9496 7.75639C43.4832 8.08452 43.8975 8.54522 44.1925 9.13849C44.4875 9.73177 44.6349 10.4245 44.6349 11.2166C44.6349 12.0054 44.4875 12.6948 44.1925 13.2848C43.8975 13.8748 43.4832 14.3338 42.9496 14.6619C42.416 14.9901 41.7912 15.1541 41.0753 15.1541ZM41.0803 13.9062C41.5443 13.9062 41.9287 13.7836 42.2337 13.5384C42.5386 13.2931 42.764 12.9666 42.9098 12.5589C43.0589 12.1513 43.1335 11.7022 43.1335 11.2116C43.1335 10.7244 43.0589 10.277 42.9098 9.86932C42.764 9.45833 42.5386 9.12855 42.2337 8.87997C41.9287 8.63139 41.5443 8.5071 41.0803 8.5071C40.6129 8.5071 40.2251 8.63139 39.9169 8.87997C39.612 9.12855 39.3849 9.45833 39.2358 9.86932C39.09 10.277 39.017 10.7244 39.017 11.2116C39.017 11.7022 39.09 12.1513 39.2358 12.5589C39.3849 12.9666 39.612 13.2931 39.9169 13.5384C40.2251 13.7836 40.6129 13.9062 41.0803 13.9062ZM47.7173 15L45.4702 7.36364H47.0064L48.5028 12.9716H48.5774L50.0788 7.36364H51.6151L53.1065 12.9467H53.1811L54.6676 7.36364H56.2038L53.9616 15H52.4453L50.8942 9.48651H50.7798L49.2287 15H47.7173ZM60.6733 15.1541C59.9209 15.1541 59.273 14.9934 58.7294 14.6719C58.1892 14.3471 57.7715 13.8913 57.4766 13.3047C57.1849 12.7147 57.0391 12.0237 57.0391 11.2315C57.0391 10.4493 57.1849 9.75994 57.4766 9.16335C57.7715 8.56676 58.1825 8.10109 58.7095 7.76633C59.2398 7.43158 59.8596 7.2642 60.5689 7.2642C60.9998 7.2642 61.4174 7.33546 61.8217 7.47798C62.2261 7.6205 62.589 7.84422 62.9105 8.14915C63.232 8.45407 63.4856 8.85014 63.6712 9.33736C63.8568 9.82126 63.9496 10.4096 63.9496 11.1023V11.6293H57.8793V10.5156H62.4929C62.4929 10.1245 62.4134 9.77817 62.2543 9.47656C62.0952 9.17164 61.8714 8.93134 61.5831 8.75568C61.2981 8.58002 60.9633 8.49219 60.5788 8.49219C60.1612 8.49219 59.7966 8.59493 59.4851 8.80043C59.1768 9.0026 58.9382 9.26776 58.7692 9.59588C58.6035 9.92069 58.5206 10.2737 58.5206 10.6548V11.5249C58.5206 12.0353 58.6101 12.4695 58.7891 12.8274C58.9714 13.1854 59.2249 13.4588 59.5497 13.6477C59.8745 13.8333 60.254 13.9261 60.6882 13.9261C60.9699 13.9261 61.2268 13.8864 61.4588 13.8068C61.6908 13.724 61.8913 13.6013 62.0604 13.4389C62.2294 13.2765 62.3587 13.076 62.4482 12.8374L63.8551 13.0909C63.7424 13.5052 63.5402 13.8681 63.2486 14.1797C62.9602 14.4879 62.5973 14.7282 62.1598 14.9006C61.7256 15.0696 61.2301 15.1541 60.6733 15.1541ZM65.5989 15V7.36364H67.0357V8.5767H67.1152C67.2544 8.16572 67.4997 7.84257 67.851 7.60724C68.2057 7.36861 68.6067 7.24929 69.0542 7.24929C69.147 7.24929 69.2563 7.2526 69.3823 7.25923C69.5115 7.26586 69.6126 7.27415 69.6855 7.28409V8.70597C69.6259 8.68939 69.5198 8.67116 69.3674 8.65128C69.2149 8.62808 69.0624 8.61648 68.91 8.61648C68.5587 8.61648 68.2454 8.69105 67.9703 8.8402C67.6986 8.98603 67.4831 9.18987 67.324 9.4517C67.165 9.71023 67.0854 10.0052 67.0854 10.3366V15H65.5989ZM73.9897 15.1541C73.2373 15.1541 72.5894 14.9934 72.0458 14.6719C71.5056 14.3471 71.0879 13.8913 70.793 13.3047C70.5013 12.7147 70.3555 12.0237 70.3555 11.2315C70.3555 10.4493 70.5013 9.75994 70.793 9.16335C71.0879 8.56676 71.4989 8.10109 72.0259 7.76633C72.5562 7.43158 73.176 7.2642 73.8853 7.2642C74.3162 7.2642 74.7338 7.33546 75.1381 7.47798C75.5425 7.6205 75.9054 7.84422 76.2269 8.14915C76.5484 8.45407 76.802 8.85014 76.9876 9.33736C77.1732 9.82126 77.266 10.4096 77.266 11.1023V11.6293H71.1957V10.5156H75.8093C75.8093 10.1245 75.7298 9.77817 75.5707 9.47656C75.4116 9.17164 75.1879 8.93134 74.8995 8.75568C74.6145 8.58002 74.2797 8.49219 73.8952 8.49219C73.4776 8.49219 73.113 8.59493 72.8015 8.80043C72.4933 9.0026 72.2546 9.26776 72.0856 9.59588C71.9199 9.92069 71.837 10.2737 71.837 10.6548V11.5249C71.837 12.0353 71.9265 12.4695 72.1055 12.8274C72.2878 13.1854 72.5413 13.4588 72.8661 13.6477C73.1909 13.8333 73.5704 13.9261 74.0046 13.9261C74.2863 13.9261 74.5432 13.8864 74.7752 13.8068C75.0072 13.724 75.2077 13.6013 75.3768 13.4389C75.5458 13.2765 75.6751 13.076 75.7646 12.8374L77.1715 13.0909C77.0588 13.5052 76.8567 13.8681 76.565 14.1797C76.2766 14.4879 75.9137 14.7282 75.4762 14.9006C75.042 15.0696 74.5465 15.1541 73.9897 15.1541ZM81.774 15.1491C81.1575 15.1491 80.6073 14.9917 80.1234 14.6768C79.6428 14.3587 79.265 13.9062 78.9899 13.3196C78.7181 12.7296 78.5822 12.022 78.5822 11.1967C78.5822 10.3714 78.7198 9.66548 78.9949 9.07884C79.2733 8.49219 79.6544 8.04309 80.1383 7.73153C80.6222 7.41998 81.1708 7.2642 81.7839 7.2642C82.2579 7.2642 82.639 7.34375 82.9274 7.50284C83.219 7.65862 83.4444 7.84091 83.6035 8.04972C83.7659 8.25852 83.8919 8.44247 83.9814 8.60156H84.0708V4.81818H85.5574V15H84.1056V13.8118H83.9814C83.8919 13.9742 83.7626 14.1598 83.5936 14.3686C83.4279 14.5774 83.1992 14.7597 82.9075 14.9155C82.6158 15.0713 82.238 15.1491 81.774 15.1491ZM82.1021 13.8814C82.5297 13.8814 82.8909 13.7687 83.1859 13.5433C83.4842 13.3146 83.7096 12.9981 83.862 12.5938C84.0178 12.1894 84.0957 11.7187 84.0957 11.1818C84.0957 10.6515 84.0195 10.1875 83.867 9.78977C83.7145 9.39205 83.4908 9.08215 83.1958 8.86009C82.9009 8.63802 82.5363 8.52699 82.1021 8.52699C81.6547 8.52699 81.2818 8.64299 80.9835 8.875C80.6852 9.10701 80.4598 9.42353 80.3074 9.82457C80.1582 10.2256 80.0836 10.678 80.0836 11.1818C80.0836 11.6922 80.1599 12.1513 80.3123 12.5589C80.4648 12.9666 80.6902 13.2898 80.9885 13.5284C81.2901 13.7637 81.6613 13.8814 82.1021 13.8814ZM91.5034 15V4.81818H92.9899V8.60156H93.0794C93.1655 8.44247 93.2898 8.25852 93.4522 8.04972C93.6146 7.84091 93.84 7.65862 94.1284 7.50284C94.4167 7.34375 94.7979 7.2642 95.2718 7.2642C95.8883 7.2642 96.4385 7.41998 96.9224 7.73153C97.4063 8.04309 97.7858 8.49219 98.0609 9.07884C98.3393 9.66548 98.4785 10.3714 98.4785 11.1967C98.4785 12.022 98.341 12.7296 98.0659 13.3196C97.7908 13.9062 97.4129 14.3587 96.9324 14.6768C96.4518 14.9917 95.9032 15.1491 95.2868 15.1491C94.8227 15.1491 94.4432 15.0713 94.1483 14.9155C93.8566 14.7597 93.6279 14.5774 93.4622 14.3686C93.2965 14.1598 93.1689 13.9742 93.0794 13.8118H92.9551V15H91.5034ZM92.96 11.1818C92.96 11.7187 93.0379 12.1894 93.1937 12.5938C93.3495 12.9981 93.5749 13.3146 93.8699 13.5433C94.1648 13.7687 94.5261 13.8814 94.9537 13.8814C95.3978 13.8814 95.769 13.7637 96.0673 13.5284C96.3656 13.2898 96.591 12.9666 96.7434 12.5589C96.8992 12.1513 96.9771 11.6922 96.9771 11.1818C96.9771 10.678 96.9009 10.2256 96.7484 9.82457C96.5993 9.42353 96.3739 9.10701 96.0723 8.875C95.774 8.64299 95.4011 8.52699 94.9537 8.52699C94.5228 8.52699 94.1582 8.63802 93.8599 8.86009C93.5649 9.08215 93.3412 9.39205 93.1887 9.78977C93.0363 10.1875 92.96 10.6515 92.96 11.1818ZM100.828 17.8636C100.606 17.8636 100.403 17.8454 100.221 17.8089C100.039 17.7758 99.9029 17.7393 99.8134 17.6996L100.171 16.4815C100.443 16.5545 100.685 16.5859 100.897 16.576C101.109 16.5661 101.297 16.4865 101.459 16.3374C101.625 16.1882 101.771 15.9446 101.896 15.6065L102.08 15.0994L99.2864 7.36364H100.877L102.811 13.2898H102.891L104.825 7.36364H106.421L103.274 16.0192C103.128 16.4169 102.942 16.7533 102.717 17.0284C102.491 17.3068 102.223 17.5156 101.911 17.6548C101.6 17.794 101.239 17.8636 100.828 17.8636ZM120.487 9.90909C120.487 10.9962 120.288 11.9309 119.89 12.7131C119.492 13.492 118.947 14.0919 118.254 14.5128C117.565 14.9304 116.781 15.1392 115.903 15.1392C115.021 15.1392 114.234 14.9304 113.541 14.5128C112.852 14.0919 112.308 13.4903 111.911 12.7081C111.513 11.9259 111.314 10.9929 111.314 9.90909C111.314 8.82197 111.513 7.88897 111.911 7.11008C112.308 6.32789 112.852 5.72798 113.541 5.31037C114.234 4.88944 115.021 4.67898 115.903 4.67898C116.781 4.67898 117.565 4.88944 118.254 5.31037C118.947 5.72798 119.492 6.32789 119.89 7.11008C120.288 7.88897 120.487 8.82197 120.487 9.90909ZM118.965 9.90909C118.965 9.08049 118.831 8.38281 118.562 7.81605C118.297 7.24598 117.933 6.8151 117.469 6.52344C117.008 6.22846 116.486 6.08097 115.903 6.08097C115.316 6.08097 114.792 6.22846 114.332 6.52344C113.871 6.8151 113.506 7.24598 113.238 7.81605C112.973 8.38281 112.84 9.08049 112.84 9.90909C112.84 10.7377 112.973 11.437 113.238 12.0071C113.506 12.5739 113.871 13.0047 114.332 13.2997C114.792 13.5914 115.316 13.7372 115.903 13.7372C116.486 13.7372 117.008 13.5914 117.469 13.2997C117.933 13.0047 118.297 12.5739 118.562 12.0071C118.831 11.437 118.965 10.7377 118.965 9.90909ZM122.282 15V7.36364H123.719V8.5767H123.799C123.938 8.16572 124.183 7.84257 124.535 7.60724C124.889 7.36861 125.29 7.24929 125.738 7.24929C125.831 7.24929 125.94 7.2526 126.066 7.25923C126.195 7.26586 126.296 7.27415 126.369 7.28409V8.70597C126.309 8.68939 126.203 8.67116 126.051 8.65128C125.898 8.62808 125.746 8.61648 125.594 8.61648C125.242 8.61648 124.929 8.69105 124.654 8.8402C124.382 8.98603 124.167 9.18987 124.008 9.4517C123.849 9.71023 123.769 10.0052 123.769 10.3366V15H122.282ZM129.023 12.4098L129.013 10.5952H129.271L132.314 7.36364H134.094L130.624 11.0426H130.39L129.023 12.4098ZM127.656 15V4.81818H129.142V15H127.656ZM132.478 15L129.744 11.3707L130.768 10.3317L134.303 15H132.478ZM135.449 15V7.36364H136.935V15H135.449ZM136.199 6.18537C135.941 6.18537 135.719 6.09919 135.533 5.92685C135.351 5.75118 135.26 5.54238 135.26 5.30043C135.26 5.05516 135.351 4.84635 135.533 4.67401C135.719 4.49834 135.941 4.41051 136.199 4.41051C136.458 4.41051 136.678 4.49834 136.86 4.67401C137.046 4.84635 137.139 5.05516 137.139 5.30043C137.139 5.54238 137.046 5.75118 136.86 5.92685C136.678 6.09919 136.458 6.18537 136.199 6.18537Z" fill="black"/>
<defs>
<radialGradient id="paint0_radial_4331_21518" cx="0" cy="0" r="1" gradientUnits="userSpaceOnUse" gradientTransform="translate(13.2699 13.6112) rotate(56.9132) scale(15.3244)">
<stop stop-color="#AEACFF"/>
<stop offset="1" stop-color="white" stop-opacity="0"/>
</radialGradient>
<radialGradient id="paint1_radial_4331_21518" cx="0" cy="0" r="1" gradientUnits="userSpaceOnUse" gradientTransform="translate(7.99322 8.39519) rotate(-140.826) scale(13.9743)">
<stop offset="0.0392985" stop-color="#2D29D7"/>
<stop offset="1" stop-color="white" stop-opacity="0"/>
</radialGradient>
<radialGradient id="paint2_radial_4331_21518" cx="0" cy="0" r="1" gradientUnits="userSpaceOnUse" gradientTransform="translate(13.3098 6.38902) rotate(90) scale(8.52624)">
<stop stop-color="#F3BA2F"/>
<stop offset="1" stop-color="white" stop-opacity="0"/>
</radialGradient>
<radialGradient id="paint3_radial_4331_21518" cx="0" cy="0" r="1" gradientUnits="userSpaceOnUse" gradientTransform="translate(5.98731 13.21) rotate(86.6335) scale(7.51606)">
<stop stop-color="#37F2AD"/>
<stop offset="1" stop-color="white" stop-opacity="0"/>
</radialGradient>
<clipPath id="clip0_4331_21518">
<rect x="2.77734" y="2.77783" width="14.4444" height="14.4444" rx="7.22222" fill="white"/>
</clipPath>
</defs>
</svg>
